<svg xmlns="http://www.w3.org/2000/svg" fill="none" viewBox="0 0 40 40" height="40" width="40">
<mask fill="white" id="path-1-inside-1_0_1293">
<path d="M0 0H40V40H0V0Z"></path>
</mask>
<path mask="url(#path-1-inside-1_0_1293)" fill="#E5E1DC" d="M0 0V-1H-1V0H0ZM40 0H41V-1H40V0ZM40 40V41H41V40H40ZM0 40H-1V41H0V40ZM0 0V1H40V0V-1H0V0ZM40 0H39V40H40H41V0H40ZM40 40V39H0V40V41H40V40ZM0 40H1V0H0H-1V40H0Z"></path>
<path stroke-linejoin="round" stroke-linecap="round" stroke-width="1.25" stroke-opacity="0.7" stroke="#201E1D" d="M20.6917 11.8166C20.4745 11.7175 20.2387 11.6663 20 11.6663C19.7614 11.6663 19.5255 11.7175 19.3083 11.8166L12.1667 15.0666C12.0188 15.1318 11.8931 15.2386 11.8048 15.3739C11.7165 15.5093 11.6696 15.6674 11.6696 15.8291C11.6696 15.9907 11.7165 16.1488 11.8048 16.2842C11.8931 16.4196 12.0188 16.5264 12.1667 16.5916L19.3167 19.8499C19.5338 19.9489 19.7697 20.0002 20.0083 20.0002C20.247 20.0002 20.4829 19.9489 20.7 19.8499L27.85 16.5999C27.9979 16.5347 28.1236 16.4279 28.2119 16.2925C28.3001 16.1571 28.3471 15.999 28.3471 15.8374C28.3471 15.6758 28.3001 15.5177 28.2119 15.3823C28.1236 15.2469 27.9979 15.1401 27.85 15.0749L20.6917 11.8166Z"></path>
<path stroke-linejoin="round" stroke-linecap="round" stroke-width="1.25" stroke-opacity="0.7" stroke="#201E1D" d="M28.3333 24.7083L20.6917 28.1749C20.4745 28.274 20.2386 28.3252 20 28.3252C19.7613 28.3252 19.5255 28.274 19.3083 28.1749L11.6667 24.7083"></path>
<path stroke-linejoin="round" stroke-linecap="round" stroke-width="1.25" stroke-opacity="0.7" stroke="#201E1D" d="M28.3333 20.5417L20.6917 24.0084C20.4745 24.1075 20.2386 24.1587 20 24.1587C19.7613 24.1587 19.5255 24.1075 19.3083 24.0084L11.6667 20.5417"></path>
</svg>
