<svg xmlns="http://www.w3.org/2000/svg" fill="none" viewBox="0 0 40 40" height="40" width="40">
<mask fill="white" id="path-1-inside-1_0_1309">
<path d="M0 0H40V40H0V0Z"></path>
</mask>
<path mask="url(#path-1-inside-1_0_1309)" fill="#E5E1DC" d="M0 0V-1H-1V0H0ZM40 0H41V-1H40V0ZM40 40V41H41V40H40ZM0 40H-1V41H0V40ZM0 0V1H40V0V-1H0V0ZM40 0H39V40H40H41V0H40ZM40 40V39H0V40V41H40V40ZM0 40H1V0H0H-1V40H0Z"></path>
<path stroke-linejoin="round" stroke-linecap="round" stroke-width="1.25" stroke-opacity="0.7" stroke="#201E1D" d="M27.75 22.7501C27.9364 22.9359 28.0843 23.1567 28.1853 23.3998C28.2862 23.6429 28.3382 23.9035 28.3382 24.1667C28.3382 24.43 28.2862 24.6906 28.1853 24.9337C28.0843 25.1768 27.9364 25.3976 27.75 25.5834L25.5833 27.7501C25.3975 27.9365 25.1767 28.0845 24.9336 28.1854C24.6905 28.2864 24.4299 28.3383 24.1666 28.3383C23.9034 28.3383 23.6428 28.2864 23.3997 28.1854C23.1565 28.0845 22.9358 27.9365 22.75 27.7501L12.25 17.2501C11.8754 16.8737 11.6652 16.3644 11.6652 15.8334C11.6652 15.3025 11.8754 14.7931 12.25 14.4167L14.4166 12.2501C14.793 11.8755 15.3023 11.6653 15.8333 11.6653C16.3643 11.6653 16.8736 11.8755 17.25 12.2501L27.75 22.7501Z"></path>
<path stroke-linejoin="round" stroke-linecap="round" stroke-width="1.25" stroke-opacity="0.7" stroke="#201E1D" d="M22.0834 20.4167L23.75 18.75"></path>
<path stroke-linejoin="round" stroke-linecap="round" stroke-width="1.25" stroke-opacity="0.7" stroke="#201E1D" d="M19.5834 17.9167L21.25 16.25"></path>
<path stroke-linejoin="round" stroke-linecap="round" stroke-width="1.25" stroke-opacity="0.7" stroke="#201E1D" d="M17.0834 15.4167L18.75 13.75"></path>
<path stroke-linejoin="round" stroke-linecap="round" stroke-width="1.25" stroke-opacity="0.7" stroke="#201E1D" d="M24.5834 22.9167L26.25 21.25"></path>
</svg>
