<svg xmlns="http://www.w3.org/2000/svg" fill="none" viewBox="0 0 40 40" height="40" width="40">
<mask fill="white" id="path-1-inside-1_0_1301">
<path d="M0 0H40V40H0V0Z"></path>
</mask>
<path mask="url(#path-1-inside-1_0_1301)" fill="#E5E1DC" d="M0 0V-1H-1V0H0ZM40 0H41V-1H40V0ZM40 40V41H41V40H40ZM0 40H-1V41H0V40ZM0 0V1H40V0V-1H0V0ZM40 0H39V40H40H41V0H40ZM40 40V39H0V40V41H40V40ZM0 40H1V0H0H-1V40H0Z"></path>
<path stroke-linejoin="round" stroke-linecap="round" stroke-width="1.25" stroke-opacity="0.7" stroke="#201E1D" d="M12.5 20C12.5 18.0109 13.2902 16.1032 14.6967 14.6967C16.1032 13.2902 18.0109 12.5 20 12.5C22.0967 12.5079 24.1092 13.326 25.6167 14.7833L27.5 16.6667"></path>
<path stroke-linejoin="round" stroke-linecap="round" stroke-width="1.25" stroke-opacity="0.7" stroke="#201E1D" d="M27.5 12.5V16.6667H23.3333"></path>
<path stroke-linejoin="round" stroke-linecap="round" stroke-width="1.25" stroke-opacity="0.7" stroke="#201E1D" d="M27.5 20C27.5 21.9891 26.7098 23.8968 25.3033 25.3033C23.8968 26.7098 21.9891 27.5 20 27.5C17.9033 27.4921 15.8908 26.674 14.3833 25.2167L12.5 23.3333"></path>
<path stroke-linejoin="round" stroke-linecap="round" stroke-width="1.25" stroke-opacity="0.7" stroke="#201E1D" d="M16.6667 23.3333H12.5V27.4999"></path>
</svg>
